<?xml version="1.0" encoding="utf-8"?>
<!-- Generator: Adobe Illustrator 23.0.1, SVG Export Plug-In . SVG Version: 6.00 Build 0)  -->
<svg version="1.1" id="Layer_1" xmlns="http://www.w3.org/2000/svg" xmlns:xlink="http://www.w3.org/1999/xlink" x="0px" y="0px"
	 viewBox="0 0 217.4 257.2" style="enable-background:new 0 0 217.4 257.2;" xml:space="preserve">
<style type="text/css">
	.st0{fill:#5D50A0;}
	.st1{fill:#EE6523;}
	.st2{fill:#C95943;}
	.st3{fill:#A9506C;}
	.st4{fill:#924C87;}
	.st5{fill:url(#SVGID_1_);}
	.st6{fill:url(#SVGID_2_);}
	.st7{fill:url(#SVGID_3_);}
	.st8{fill:#030303;}
	.st9{fill:url(#SVGID_4_);}
	.st10{fill:url(#SVGID_5_);}
	.st11{fill:url(#SVGID_6_);}
	.st12{fill:url(#SVGID_7_);}
	.st13{fill:url(#SVGID_8_);}
	.st14{fill:url(#SVGID_9_);}
</style>
<g>
	<linearGradient id="SVGID_1_" gradientUnits="userSpaceOnUse" x1="128.884" y1="79.012" x2="30.8866" y2="244.7695">
		<stop  offset="0.1772" style="stop-color:#F16723"/>
		<stop  offset="0.1956" style="stop-color:#E2662F"/>
		<stop  offset="0.259" style="stop-color:#B36253"/>
		<stop  offset="0.3222" style="stop-color:#8C5E71"/>
		<stop  offset="0.3843" style="stop-color:#6D5B88"/>
		<stop  offset="0.4449" style="stop-color:#575A99"/>
		<stop  offset="0.5034" style="stop-color:#4A58A3"/>
		<stop  offset="0.5572" style="stop-color:#4658A6"/>
	</linearGradient>
	<path class="st5" d="M20.91,252.03c0,0,49.73-128.47,99.2-175c0,0,11.87-11.73,21.6-16.27c0,0,12.67-5.47,18.8,8
		c0,0,7.33,14.67,4.8,49.6c0,0,6.53-31.27-2.4-53c0,0-8.27-22.87-33.47-22.33c0,0-24.93-2.4-48,22.93c0,0-16.27,14.67-30.93,47.07
		c0,0-17.47,40.93-22.13,74.8C28.37,187.83,21.17,234.29,20.91,252.03z"/>
	<linearGradient id="SVGID_2_" gradientUnits="userSpaceOnUse" x1="161.8598" y1="230.4715" x2="38.0559" y2="12.4304">
		<stop  offset="0.1772" style="stop-color:#F16723"/>
		<stop  offset="0.1956" style="stop-color:#E2662F"/>
		<stop  offset="0.259" style="stop-color:#B36253"/>
		<stop  offset="0.3222" style="stop-color:#8C5E71"/>
		<stop  offset="0.3843" style="stop-color:#6D5B88"/>
		<stop  offset="0.4449" style="stop-color:#575A99"/>
		<stop  offset="0.5034" style="stop-color:#4A58A3"/>
		<stop  offset="0.5572" style="stop-color:#4658A6"/>
	</linearGradient>
	<path class="st6" d="M45.89,7.98c0,0,30.53,36.09,61.85,90.1c44.44,76.62,85.16,164-17.8,116.43c0,0,30.28,16.98,48.28,16.97
		c0,0,70.47,9.93,43.2-75C181.42,156.47,164.82,102.47,45.89,7.98z"/>
	<linearGradient id="SVGID_3_" gradientUnits="userSpaceOnUse" x1="8.8032" y1="122.0441" x2="215.8876" y2="135.38">
		<stop  offset="0.1772" style="stop-color:#F16723"/>
		<stop  offset="0.1956" style="stop-color:#E2662F"/>
		<stop  offset="0.259" style="stop-color:#B36253"/>
		<stop  offset="0.3222" style="stop-color:#8C5E71"/>
		<stop  offset="0.3843" style="stop-color:#6D5B88"/>
		<stop  offset="0.4449" style="stop-color:#575A99"/>
		<stop  offset="0.5034" style="stop-color:#4A58A3"/>
		<stop  offset="0.5572" style="stop-color:#4658A6"/>
	</linearGradient>
	<path class="st7" d="M214.28,160.29c0,0-19.67,6.28-84.26,0.28c-105.87-9.83-149.6-34.8-62.73-102.49c0,0-24.19,15.75-38.64,31.93
		c-26.07,29.18-33.77,82.53,11.12,99.12C39.78,189.13,83.35,209.94,214.28,160.29z"/>
</g>
</svg>
