<svg id="Layer_1" data-name="Layer 1" xmlns="http://www.w3.org/2000/svg" xmlns:xlink="http://www.w3.org/1999/xlink" viewBox="0 0 586.2 257.2"><defs><style>.cls-1{fill:url(#linear-gradient);}.cls-2{fill:url(#linear-gradient-2);}.cls-3{fill:url(#linear-gradient-3);}.cls-4{fill:url(#linear-gradient-4);}.cls-5{fill:url(#linear-gradient-5);}.cls-6{fill:url(#linear-gradient-6);}.cls-7{fill:url(#linear-gradient-7);}.cls-8{fill:url(#linear-gradient-8);}.cls-9{fill:url(#linear-gradient-9);}</style><linearGradient id="linear-gradient" x1="128.88" y1="79.01" x2="30.89" y2="244.77" gradientUnits="userSpaceOnUse"><stop offset="0.18" stop-color="#f16723"/><stop offset="0.2" stop-color="#e2662f"/><stop offset="0.26" stop-color="#b36253"/><stop offset="0.32" stop-color="#8c5e71"/><stop offset="0.38" stop-color="#6d5b88"/><stop offset="0.44" stop-color="#575a99"/><stop offset="0.5" stop-color="#4a58a3"/><stop offset="0.56" stop-color="#4658a6"/></linearGradient><linearGradient id="linear-gradient-2" x1="161.86" y1="230.47" x2="38.06" y2="12.43" xlink:href="#linear-gradient"/><linearGradient id="linear-gradient-3" x1="8.8" y1="122.04" x2="215.89" y2="135.38" xlink:href="#linear-gradient"/><linearGradient id="linear-gradient-4" x1="500.9" y1="159.96" x2="501.7" y2="73.96" xlink:href="#linear-gradient"/><linearGradient id="linear-gradient-5" x1="324.4" y1="158.32" x2="325.2" y2="72.32" xlink:href="#linear-gradient"/><linearGradient id="linear-gradient-6" x1="261.68" y1="157.73" x2="262.48" y2="71.73" xlink:href="#linear-gradient"/><linearGradient id="linear-gradient-7" x1="384.67" y1="158.88" x2="385.47" y2="72.88" xlink:href="#linear-gradient"/><linearGradient id="linear-gradient-8" x1="449.67" y1="159.48" x2="450.47" y2="73.48" xlink:href="#linear-gradient"/><linearGradient id="linear-gradient-9" x1="548.74" y1="160.4" x2="549.54" y2="74.4" xlink:href="#linear-gradient"/></defs><title>Adaate-horizontal-01</title><path class="cls-1" d="M20.91,252s49.73-128.47,99.2-175c0,0,11.86-11.74,21.6-16.27,0,0,12.66-5.47,18.8,8,0,0,7.33,14.67,4.8,49.6,0,0,6.53-31.27-2.4-53,0,0-8.27-22.87-33.47-22.33,0,0-24.93-2.4-48,22.93,0,0-16.27,14.67-30.93,47.07,0,0-17.47,40.93-22.14,74.8C28.37,187.83,21.17,234.29,20.91,252Z"/><path class="cls-2" d="M45.89,8s30.53,36.09,61.85,90.1c44.44,76.61,85.17,164-17.8,116.43,0,0,30.28,17,48.28,17,0,0,70.47,9.94,43.2-75C181.42,156.47,164.82,102.47,45.89,8Z"/><path class="cls-3" d="M214.28,160.29s-19.67,6.28-84.26.28C24.15,150.74-19.58,125.77,67.3,58.08c0,0-24.19,15.75-38.64,31.93C2.59,119.19-5.11,172.54,39.78,189.13,39.78,189.13,83.35,209.94,214.28,160.29Z"/><path class="cls-4" d="M522.66,100.58H480.14c-.41,0-.55.08-.54.52,0,2.57,0,6.14,0,8.71,0,.47.14.56.58.56,5.23,0,9.46,0,14.69,0,.56,0,.67.14.67.68,0,12.63,0,34.27,0,46.9,0,.5.14.58.6.58,2.69,0,7.39,0,10.09,0,.48,0,.58-.12.58-.59,0-12.67,0-34.34,0-47,0-.46.11-.56.56-.56l15.29,0c.52,0,.62-.16.61-.64,0-2.53,0-6.07,0-8.6C523.23,100.69,523.11,100.58,522.66,100.58Z"/><path class="cls-5" d="M337.5,103.85c-9.91-4.18-33.44-2.51-37.67-2.53-.44,0-.55.11-.55.63,0,9,0,15.08,0,24v3.51h0V133c0,9,0,16.08,0,25,0,.52.11.64.55.64,4.23,0,27.76,1.64,37.67-2.54a22.34,22.34,0,0,0,10.88-14.24,44.08,44.08,0,0,0,1.92-12.42,46.65,46.65,0,0,0-1.92-12.42C346.61,110.43,342.77,106.87,337.5,103.85Zm2.34,25.65h0v0h0c-.29,5.8-.59,18.65-15.68,19.53-4.11.66-9.33.46-13.47.51-.42,0-.43-.2-.43-.58,0-5.65,0-10.31,0-16v-3.52h0V126c0-5.65,0-9.3,0-15,0-.38,0-.58.43-.58,4.14.06,8.93,0,13.41.12C339.9,110.89,339.92,126.19,339.84,129.5Z"/><path class="cls-6" d="M267.66,100.55a.75.75,0,0,0-.83-.54q-5.11,0-10.23,0a.84.84,0,0,0-.93.58q-11.8,26.07-23.65,52.12c-.94,2-1.86,4.1-2.83,6.25,4,0,7.9,0,11.8,0a.81.81,0,0,0,.87-.59l5.59-12.24h0l4.88-11.81h0l.09-.18.75-1.83h.06c2.79-6.28,5.63-12.52,8.32-19,2.8,7.18,6,14,9,21H258.67L254.75,144q9.57,0,19.12,0a.81.81,0,0,1,.89.56c2.1,4.63,4.24,9.25,6.35,13.89a.71.71,0,0,0,.77.51c3.9,0,7.8,0,11.7,0h.58c-.12-.28-.21-.47-.29-.67Q280.76,129.42,267.66,100.55Z"/><path class="cls-7" d="M390.66,100.55a.75.75,0,0,0-.83-.54q-5.11,0-10.23,0a.84.84,0,0,0-.93.58Q366.87,126.66,355,152.71c-.94,2-1.86,4.1-2.83,6.25,4,0,7.9,0,11.8,0a.81.81,0,0,0,.87-.59l5.59-12.24h0l4.88-11.81h0l.09-.18.75-1.83h.06c2.79-6.28,5.63-12.52,8.32-19,2.8,7.18,6,14,9,21H381.67L377.75,144q9.57,0,19.12,0a.81.81,0,0,1,.89.56c2.1,4.63,4.24,9.25,6.35,13.89a.71.71,0,0,0,.77.51c3.9,0,7.8,0,11.7,0h.58c-.12-.28-.21-.47-.29-.67Q403.76,129.42,390.66,100.55Z"/><path class="cls-8" d="M455.66,100.55a.75.75,0,0,0-.83-.54q-5.11,0-10.23,0a.84.84,0,0,0-.93.58Q431.87,126.66,420,152.71c-.94,2-1.86,4.1-2.83,6.25,4,0,7.9,0,11.8,0a.81.81,0,0,0,.87-.59l5.59-12.24h0l4.88-11.81h0l.09-.18.75-1.83h.06c2.79-6.28,5.63-12.52,8.32-19,2.8,7.18,6,14,9,21H446.67L442.75,144q9.57,0,19.12,0a.81.81,0,0,1,.89.56c2.1,4.63,4.24,9.25,6.35,13.89a.71.71,0,0,0,.77.51c3.9,0,7.8,0,11.7,0h.58c-.12-.28-.21-.47-.29-.67Q468.76,129.42,455.66,100.55Z"/><path class="cls-9" d="M568.26,130.09s-5.47-6.46-20.14-5.15c0,0-7.88,1.29-10.27-2.55a7.6,7.6,0,0,1,.68-8.47s2.48-3.49,10.75-3.83c0,0,8.46-.66,20.22,2.75v-9.11s-16.94-6.47-33.74-.33c0,0-10.53,4.45-9.42,16.25,0,0-.14,11.8,11.54,14.3,0,0,4,.94,14,.52,0,0,8.8-1.21,9.3,5.68,0,0,1,7.87-7.9,9.13,0,0-8,2.32-24.9-2.51l0,9.57S541,160,551.46,159c0,0,13.55.24,18.27-8.87C569.73,150.15,575.25,139.34,568.26,130.09Z"/></svg>